<svg version="1.1" xmlns="http://www.w3.org/2000/svg" xmlns:xlink="http://www.w3.org/1999/xlink" width="72px" height="72px" viewBox="0,0,256,256"><g fill="#ffffff" fill-rule="nonzero" stroke="none" stroke-width="1" stroke-linecap="butt" stroke-linejoin="miter" stroke-miterlimit="10" stroke-dasharray="" stroke-dashoffset="0" font-family="none" font-weight="none" font-size="none" text-anchor="none" style="mix-blend-mode: normal"><g transform="scale(3.55556,3.55556)"><path d="M29.87109,15.54492c-1.0235,0.01638 -2.04105,0.4233 -2.81055,1.2168l-15.93359,16.45703c-1.501,1.551 -1.501,4.01345 0,5.56445l15.93359,16.45703c0.785,0.81 1.83,1.2168 2.875,1.2168c1.003,0 2.00525,-0.37395 2.78125,-1.12695c1.587,-1.536 1.6278,-4.06925 0.0918,-5.65625l-9.36914,-9.67383h34.56055c2.209,0 4,-1.791 4,-4c0,-2.209 -1.791,-4 -4,-4h-34.56055l9.36914,-9.67383c1.536,-1.587 1.4952,-4.11925 -0.0918,-5.65625c-0.7925,-0.768 -1.8222,-1.14137 -2.8457,-1.125z"></path></g></g></svg>